<svg xmlns="http://www.w3.org/2000/svg" viewBox="0 0 512 512" role="img" aria-label="점수33 아이콘">
  <rect width="512" height="512" rx="96" fill="#2f6f5e"/>
  <path d="M96 344h320" stroke="#fffdf8" stroke-width="28" stroke-linecap="round"/>
  <path d="M120 136h272a24 24 0 0 1 24 24v184H96V160a24 24 0 0 1 24-24Z" fill="#fffdf8"/>
  <path d="M150 214h64c26 0 45 17 45 40 0 16-9 28-24 34 19 5 31 19 31 39 0 27-22 45-54 45h-67v-40h61c11 0 18-6 18-16s-7-16-19-16h-41v-37h37c11 0 18-5 18-15 0-9-7-15-18-15h-51v-39Z" fill="#2f6f5e"/>
  <path d="M290 214h64c26 0 45 17 45 40 0 16-9 28-24 34 19 5 31 19 31 39 0 27-22 45-54 45h-67v-40h61c11 0 18-6 18-16s-7-16-19-16h-41v-37h37c11 0 18-5 18-15 0-9-7-15-18-15h-51v-39Z" fill="#2f6f5e"/>
  <circle cx="392" cy="392" r="62" fill="#f0a23b"/>
  <path d="m360 392 22 22 44-50" fill="none" stroke="#20262d" stroke-width="18" stroke-linecap="round" stroke-linejoin="round"/>
</svg>
